<svg width="400" height="400" viewBox="0 0 400 400" fill="none" xmlns="http://www.w3.org/2000/svg">
<path d="M200.134 400L56.0978 360.015L24 0H376.7L344.568 359.958L200.134 400Z" fill="#264DE4"/>
<path d="M317.059 337.036L344.518 29.4355H200.35V369.393L317.059 337.036Z" fill="#2965F1"/>
<path d="M97.584 162.963L101.541 207.117H200.35V162.963H97.584Z" fill="#EBEBEB"/>
<path d="M89.6318 73.5918L93.6456 117.747H200.35V73.5918H89.6318Z" fill="#EBEBEB"/>
<path d="M200.351 277.635L200.157 277.687L150.982 264.408L147.839 229.193H103.515L109.701 298.522L200.147 323.631L200.351 323.574V277.635Z" fill="#EBEBEB"/>
<path d="M302.833 162.961L310.804 73.5918H200.197V117.747H262.415L258.397 162.961H200.197V207.115H254.568L249.443 264.38L200.197 277.672V323.609L290.716 298.522L291.38 291.062L301.756 174.818L302.833 162.961Z" fill="white"/>
</svg>
