<svg width="400" height="400" viewBox="0 0 400 400" fill="none" xmlns="http://www.w3.org/2000/svg">
<g clip-path="url(#clip0_2129_182)">
<path d="M392.457 182.177L217.811 7.54446C207.761 -2.51482 191.448 -2.51482 181.384 7.54446L145.119 43.8096L191.123 89.8137C201.814 86.2017 214.072 88.6243 222.595 97.1475C231.158 105.723 233.563 118.087 229.863 128.813L274.2 173.149C284.926 169.454 297.303 171.846 305.87 180.426C317.842 192.395 317.842 211.793 305.87 223.771C293.892 235.748 274.494 235.748 262.512 223.771C253.506 214.756 251.281 201.528 255.841 190.433L214.493 149.085L214.489 257.894C217.408 259.342 220.164 261.269 222.595 263.692C234.568 275.66 234.568 295.059 222.595 307.045C210.618 319.018 191.211 319.018 179.251 307.045C167.278 295.059 167.278 275.66 179.251 263.692C182.209 260.738 185.632 258.504 189.284 257.003V147.181C185.632 145.688 182.213 143.468 179.251 140.492C170.179 131.433 167.998 118.122 172.646 106.983L127.3 61.6284L7.5497 181.37C-2.51396 191.438 -2.51396 207.751 7.5497 217.811L182.196 392.448C192.251 402.507 208.56 402.507 218.628 392.448L392.457 218.622C402.517 208.559 402.517 192.237 392.457 182.177Z" fill="#DE4C36"/>
</g>
<defs>
<clipPath id="clip0_2129_182">
<rect width="400" height="400" fill="white"/>
</clipPath>
</defs>
</svg>
