<svg width="400" height="400" viewBox="0 0 400 400" fill="none" xmlns="http://www.w3.org/2000/svg">
<path d="M200.002 4.6875C89.5583 4.6875 0 94.2292 0 204.689C0 293.055 57.3066 368.024 136.773 394.47C146.769 396.322 150.438 390.132 150.438 384.849C150.438 380.08 150.253 364.325 150.167 347.613C94.5262 359.711 82.7853 324.015 82.7853 324.015C73.6874 300.898 60.5788 294.751 60.5788 294.751C42.4326 282.338 61.9466 282.593 61.9466 282.593C82.0302 284.004 92.6053 303.203 92.6053 303.203C110.443 333.779 139.393 324.939 150.806 319.829C152.601 306.902 157.784 298.079 163.504 293.085C119.081 288.028 72.3825 270.878 72.3825 194.243C72.3825 172.408 80.1954 154.566 92.9894 140.56C90.9129 135.523 84.0671 115.181 94.9269 87.6318C94.9269 87.6318 111.722 82.2565 149.942 108.133C165.895 103.701 183.005 101.479 200.002 101.403C216.999 101.479 234.121 103.701 250.105 108.133C288.278 82.2565 305.05 87.6318 305.05 87.6318C315.936 115.181 309.087 135.523 307.011 140.56C319.834 154.566 327.594 172.408 327.594 194.243C327.594 271.061 280.806 287.975 236.271 292.926C243.444 299.133 249.836 311.304 249.836 329.963C249.836 356.724 249.605 378.261 249.605 384.849C249.605 390.171 253.205 396.408 263.343 394.444C342.766 367.968 400 293.025 400 204.689C400 94.2292 310.455 4.6875 200.002 4.6875ZM74.9071 289.594C74.4666 290.588 72.9034 290.886 71.4793 290.203C70.0286 289.551 69.2139 288.196 69.6842 287.2C70.1147 286.176 71.6813 285.891 73.1286 286.577C74.5826 287.229 75.4105 288.597 74.9071 289.594ZM84.745 298.372C83.7911 299.257 81.9265 298.846 80.6614 297.448C79.3531 296.054 79.1081 294.189 80.0751 293.292C81.0588 292.407 82.8671 292.821 84.1786 294.216C85.4869 295.627 85.7419 297.478 84.745 298.372ZM91.4941 309.604C90.2687 310.455 88.265 309.657 87.0263 307.878C85.8009 306.1 85.8009 303.967 87.0528 303.112C88.2948 302.258 90.2687 303.026 91.5239 304.791C92.746 306.6 92.746 308.733 91.4941 309.604ZM102.908 322.611C101.812 323.82 99.4772 323.495 97.7682 321.846C96.0195 320.233 95.5327 317.945 96.6322 316.736C97.7417 315.524 100.09 315.865 101.812 317.501C103.548 319.11 104.077 321.416 102.908 322.611ZM117.66 327.002C117.177 328.569 114.928 329.281 112.662 328.615C110.4 327.93 108.92 326.095 109.377 324.512C109.847 322.935 112.106 322.193 114.388 322.906C116.647 323.588 118.13 325.409 117.66 327.002ZM134.448 328.865C134.505 330.514 132.584 331.882 130.206 331.912C127.815 331.965 125.88 330.63 125.854 329.007C125.854 327.342 127.732 325.987 130.123 325.947C132.501 325.901 134.448 327.226 134.448 328.865ZM150.941 328.233C151.226 329.842 149.573 331.495 147.212 331.936C144.89 332.36 142.74 331.366 142.446 329.77C142.158 328.12 143.84 326.468 146.158 326.04C148.523 325.63 150.639 326.597 150.941 328.233Z" fill="#161614"/>
</svg>
