<svg width="400" height="400" viewBox="0 0 400 400" fill="none" xmlns="http://www.w3.org/2000/svg">
<path d="M376.7 0L344.568 359.958L200.134 400L56.0978 360.015L24 0H376.7Z" fill="#E44D26"/>
<path d="M200.35 369.393L317.059 337.036L344.518 29.4355H200.35V369.393Z" fill="#F16529"/>
<path d="M137.887 117.747H200.35V73.5918H89.6318L90.6888 85.4378L101.541 207.115H200.35V162.961H141.922L137.887 117.747Z" fill="#EBEBEB"/>
<path d="M147.839 229.193H103.515L109.701 298.522L200.147 323.631L200.351 323.574V277.635L200.157 277.687L150.982 264.408L147.839 229.193Z" fill="#EBEBEB"/>
<path d="M200.197 207.117H254.568L249.443 264.382L200.197 277.673V323.61L290.716 298.523L291.38 291.063L301.756 174.82L302.833 162.963H200.197V207.117Z" fill="white"/>
<path d="M200.197 117.639V117.747H306.851L307.737 107.822L309.749 85.4378L310.804 73.5918H200.197V117.639Z" fill="white"/>
</svg>
