<svg width="400" height="400" viewBox="0 0 400 400" fill="none" xmlns="http://www.w3.org/2000/svg">
<path d="M147.461 309.217C147.461 309.217 132.203 318.09 158.32 321.093C189.96 324.702 206.131 324.185 240.999 317.585C240.999 317.585 250.166 323.333 262.968 328.312C184.804 361.812 86.0675 326.371 147.461 309.217Z" fill="#5382A1"/>
<path d="M137.91 265.502C137.91 265.502 120.796 278.17 146.933 280.873C180.732 284.36 207.423 284.645 253.61 275.752C253.61 275.752 259.999 282.228 270.044 285.77C175.539 313.404 70.2773 287.949 137.91 265.502Z" fill="#5382A1"/>
<path d="M218.431 191.348C237.69 213.521 213.371 233.475 213.371 233.475C213.371 233.475 262.274 208.23 239.815 176.617C218.839 147.135 202.753 132.487 289.835 81.9824C289.835 81.9824 153.144 116.122 218.431 191.348Z" fill="#E76F00"/>
<path d="M321.809 341.551C321.809 341.551 333.1 350.855 309.373 358.052C264.256 371.72 121.59 375.847 81.9579 358.597C67.7112 352.399 94.4278 343.798 102.832 341.993C111.596 340.093 116.605 340.447 116.605 340.447C100.761 329.286 14.1974 362.362 72.6348 371.835C232.002 397.68 363.146 360.197 321.809 341.551Z" fill="#5382A1"/>
<path d="M154.8 220.208C154.8 220.208 82.2307 237.444 129.101 243.703C148.891 246.353 188.343 245.753 225.09 242.674C255.123 240.141 285.279 234.755 285.279 234.755C285.279 234.755 274.689 239.29 267.027 244.521C193.335 263.902 50.9748 254.886 91.9585 235.061C126.618 218.307 154.8 220.208 154.8 220.208Z" fill="#5382A1"/>
<path d="M284.978 292.975C359.89 254.048 325.254 216.639 301.078 221.679C295.153 222.912 292.511 223.981 292.511 223.981C292.511 223.981 294.71 220.535 298.912 219.044C346.739 202.229 383.521 268.636 283.473 294.937C283.473 294.937 284.632 293.902 284.978 292.975Z" fill="#5382A1"/>
<path d="M239.814 0.429688C239.814 0.429688 281.301 41.931 200.465 105.748C135.642 156.941 185.683 186.129 200.438 219.479C162.6 185.339 134.832 155.287 153.461 127.316C180.804 86.2584 256.553 66.352 239.814 0.429688Z" fill="#E76F00"/>
<path d="M162.161 398.457C234.067 403.06 344.486 395.903 347.102 361.879C347.102 361.879 342.075 374.777 287.675 385.02C226.302 396.57 150.607 395.222 105.711 387.82C105.711 387.82 114.902 395.426 162.161 398.457Z" fill="#5382A1"/>
</svg>
