<svg width="400" height="400" viewBox="0 0 400 400" fill="none" xmlns="http://www.w3.org/2000/svg">
<g clip-path="url(#clip0_2129_172)">
<path d="M0 0H400V400H0V0Z" fill="#F7DF1E"/>
<path d="M105.174 334.269L135.785 315.744C141.691 326.215 147.063 335.074 159.948 335.074C172.3 335.074 180.087 330.242 180.087 311.448V183.639H217.677V311.98C217.677 350.913 194.856 368.634 161.56 368.634C131.489 368.634 114.034 353.06 105.174 334.266" fill="black"/>
<path d="M238.096 330.242L268.703 312.521C276.76 325.679 287.232 335.344 305.757 335.344C321.333 335.344 331.265 327.557 331.265 316.817C331.265 303.928 321.062 299.363 303.877 291.848L294.482 287.817C267.362 276.274 249.371 261.775 249.371 231.165C249.371 202.972 270.851 181.49 304.416 181.49C328.313 181.49 345.497 189.815 357.847 211.564L328.58 230.358C322.135 218.813 315.156 214.25 304.416 214.25C293.407 214.25 286.426 221.231 286.426 230.358C286.426 241.636 293.407 246.201 309.516 253.183L318.913 257.21C350.865 270.905 368.856 284.865 368.856 316.279C368.856 350.113 342.274 368.638 306.564 368.638C271.658 368.638 249.103 351.992 238.096 330.242Z" fill="black"/>
</g>
<defs>
<clipPath id="clip0_2129_172">
<rect width="400" height="400" fill="white"/>
</clipPath>
</defs>
</svg>
