<svg width="400" height="400" viewBox="0 0 400 400" fill="none" xmlns="http://www.w3.org/2000/svg">
<path d="M368.201 306.581C346.454 306.038 329.599 308.214 315.463 314.194C311.385 315.824 304.86 315.826 304.316 320.99C306.492 323.166 306.763 326.7 308.667 329.689C311.931 335.124 317.637 342.466 322.803 346.273C328.511 350.621 334.221 354.97 340.2 358.777C350.803 365.302 362.764 369.107 373.094 375.631C379.077 379.434 385.054 384.331 391.035 388.408C394.026 390.581 395.928 394.116 399.734 395.476V394.661C397.831 392.213 397.287 388.68 395.386 385.961C392.669 383.243 389.949 380.795 387.23 378.077C379.346 367.476 369.56 358.233 358.958 350.621C350.26 344.641 331.229 336.485 327.696 326.427C327.696 326.427 327.423 326.155 327.152 325.884C333.133 325.34 340.2 323.166 345.91 321.534C355.153 319.087 363.58 319.631 373.094 317.185C377.443 316.097 381.793 314.738 386.142 313.378V310.933C381.251 306.038 377.716 299.515 372.55 294.893C358.687 282.93 343.462 271.243 327.696 261.457C319.268 256.02 308.394 252.485 299.423 247.865C296.163 246.231 290.724 245.417 288.822 242.699C283.928 236.718 281.209 228.836 277.676 221.767C269.795 206.813 262.18 190.233 255.384 174.467C250.493 163.864 247.502 153.261 241.521 143.476C213.521 97.2624 183.074 69.2627 136.317 41.8054C126.258 36.0974 114.298 33.6501 101.521 30.6605C94.7269 30.3876 87.929 29.8453 81.1329 29.5724C76.784 27.6692 72.4335 22.5052 68.627 20.0579C53.135 10.2705 13.1718 -10.9314 1.75403 17.0683C-5.58611 34.7382 12.6278 52.1351 18.8798 61.1073C23.5032 67.3594 29.4824 74.4266 32.7449 81.4957C34.6482 86.1139 35.1904 91.0102 37.0937 95.9031C41.4442 107.861 45.5202 121.184 51.2299 132.331C54.2213 138.039 57.482 144.02 61.2885 149.184C63.4629 152.173 67.2677 153.534 68.0846 158.427C64.2798 163.864 64.007 172.019 61.8308 178.816C52.0451 209.534 55.8516 247.592 69.715 270.155C74.0638 276.949 84.3952 291.904 98.2587 286.194C110.492 281.301 107.773 265.806 111.307 252.213C112.124 248.949 111.58 246.777 113.21 244.602C113.212 244.873 113.21 245.146 113.21 245.146C117.017 252.757 120.821 260.098 124.355 267.709C132.783 281.028 147.462 294.893 159.695 304.137C166.221 309.028 171.385 317.456 179.541 320.447V319.63H178.997C177.365 317.183 174.919 316.097 172.745 314.194C167.852 309.301 162.413 303.32 158.608 297.883C147.192 282.659 137.132 265.806 128.162 248.407C123.813 239.981 120.006 230.737 116.473 222.311C114.84 219.046 114.84 214.155 112.122 212.525C108.044 218.504 102.065 223.67 99.0739 231.01C93.9116 242.699 93.3658 257.106 91.4626 272.058C90.3762 272.331 90.9185 272.058 90.3745 272.602C81.6769 270.426 78.6855 261.457 75.423 253.844C67.2677 234.544 65.9085 203.553 72.9774 181.263C74.8807 175.553 83.036 157.612 79.7735 152.175C78.1432 147.009 72.7046 144.02 69.715 139.942C66.1813 134.776 62.3748 128.253 59.9293 122.544C53.4043 107.321 50.1419 90.4663 43.0746 75.2419C39.8121 68.1729 34.1041 60.8345 29.4824 54.3113C24.3184 46.9711 18.6086 41.8054 14.5309 33.106C13.1734 30.1164 11.2684 25.2236 13.4429 21.9611C13.9869 19.7867 15.0732 18.9715 17.2494 18.4275C20.783 15.4361 30.8416 19.2426 34.3751 20.873C44.4337 24.9489 52.8602 28.7572 61.2884 34.4652C65.0932 37.1837 69.1708 42.3494 74.0637 43.7086H79.7734C88.4728 45.6102 98.2585 44.2526 106.414 46.6982C120.823 51.3182 133.869 58.116 145.56 65.4562C181.173 88.0188 210.53 120.098 230.376 158.427C233.638 164.678 234.996 170.389 237.987 176.912C243.697 190.233 250.764 203.826 256.472 216.874C262.18 229.649 267.617 242.699 275.772 253.302C279.852 259.008 296.161 261.999 303.501 264.991C308.938 267.436 317.366 269.612 322.259 272.602C331.501 278.308 340.744 284.835 349.443 291.087C353.794 294.348 367.384 301.146 368.201 306.581Z" fill="#00546B"/>
<path d="M90.9164 70.3477C86.2947 70.3477 83.034 70.8934 79.7715 71.7086C79.7715 71.7086 79.7715 71.9815 79.7715 72.2527H80.3155C82.4917 76.6015 86.2947 79.5928 89.0132 83.3976C91.1893 87.7464 93.0908 92.0969 95.267 96.4475C95.5381 96.1746 95.8093 95.9034 95.8093 95.9034C99.6175 93.1833 101.519 88.8344 101.519 82.3112C99.8869 80.408 99.6158 78.5047 98.2565 76.6015C96.6262 73.8813 93.0908 72.5238 90.9164 70.3477Z" fill="#00546B"/>
</svg>
