<svg width="400" height="400" viewBox="0 0 400 400" fill="none" xmlns="http://www.w3.org/2000/svg">
<path d="M197.743 321.949C196.388 321.949 195.124 321.587 193.95 320.955L181.941 313.822C180.135 312.829 181.038 312.468 181.58 312.287C184.018 311.474 184.469 311.294 186.998 309.849C187.269 309.669 187.63 309.759 187.901 309.939L197.111 315.447C197.472 315.628 197.923 315.628 198.194 315.447L234.221 294.59C234.582 294.409 234.763 294.048 234.763 293.596V251.971C234.763 251.52 234.582 251.158 234.221 250.978L198.194 230.21C197.833 230.03 197.381 230.03 197.111 230.21L161.083 250.978C160.722 251.158 160.542 251.61 160.542 251.971V293.596C160.542 293.958 160.722 294.409 161.083 294.59L170.925 300.278C176.253 302.987 179.594 299.827 179.594 296.666V255.583C179.594 255.041 180.045 254.499 180.677 254.499H185.282C185.824 254.499 186.366 254.951 186.366 255.583V296.666C186.366 303.8 182.483 307.953 175.711 307.953C173.634 307.953 172.009 307.953 167.404 305.696L157.923 300.278C155.576 298.924 154.131 296.395 154.131 293.687V252.061C154.131 249.353 155.576 246.824 157.923 245.47L193.95 224.612C196.208 223.348 199.278 223.348 201.535 224.612L237.562 245.47C239.91 246.824 241.354 249.353 241.354 252.061V293.687C241.354 296.395 239.91 298.924 237.562 300.278L201.535 321.136C200.361 321.678 199.007 321.949 197.743 321.949ZM208.849 293.325C193.047 293.325 189.797 286.102 189.797 279.962C189.797 279.42 190.248 278.879 190.88 278.879H195.576C196.117 278.879 196.569 279.24 196.569 279.781C197.291 284.567 199.368 286.915 208.939 286.915C216.524 286.915 219.774 285.199 219.774 281.136C219.774 278.788 218.871 277.073 207.043 275.899C197.201 274.906 191.061 272.739 191.061 264.883C191.061 257.569 197.201 253.235 207.494 253.235C219.052 253.235 224.74 257.208 225.463 265.876C225.463 266.147 225.372 266.418 225.192 266.689C225.011 266.869 224.74 267.05 224.469 267.05H219.774C219.323 267.05 218.871 266.689 218.781 266.237C217.697 261.271 214.898 259.646 207.494 259.646C199.187 259.646 198.194 262.535 198.194 264.702C198.194 267.321 199.368 268.134 210.564 269.578C221.67 271.023 226.907 273.1 226.907 280.865C226.817 288.811 220.316 293.325 208.849 293.325Z" fill="#539E43"/>
<path d="M85.9585 159.15C85.9585 157.525 85.0555 155.99 83.6108 155.177L45.3264 133.146C44.6944 132.785 43.972 132.604 43.2497 132.514H42.8885C42.1661 132.514 41.4438 132.785 40.8117 133.146L2.52732 155.177C1.08262 155.99 0.179688 157.525 0.179688 159.15L0.269981 218.383C0.269981 219.195 0.721448 220.008 1.4438 220.369C2.16614 220.821 3.06908 220.821 3.70113 220.369L26.4551 207.367C27.8998 206.554 28.8027 205.019 28.8027 203.394V175.674C28.8027 174.049 29.7056 172.514 31.1503 171.701L40.8117 166.103C41.5341 165.651 42.3467 165.471 43.1594 165.471C43.972 165.471 44.7847 165.651 45.4167 166.103L55.0781 171.701C56.5228 172.514 57.4257 174.049 57.4257 175.674V203.394C57.4257 205.019 58.3287 206.554 59.7734 207.367L82.5273 220.369C83.2497 220.821 84.1526 220.821 84.8749 220.369C85.5973 220.008 86.0488 219.195 86.0488 218.383L85.9585 159.15Z" fill="#333333"/>
<path d="M269.976 77.6146C269.254 77.2535 268.351 77.2535 267.719 77.6146C266.996 78.0661 266.545 78.7884 266.545 79.6011V138.292C266.545 138.834 266.274 139.375 265.732 139.737C265.19 140.007 264.649 140.007 264.107 139.737L254.536 134.229C253.091 133.416 251.376 133.416 249.931 134.229L211.646 156.351C210.202 157.163 209.299 158.698 209.299 160.323V204.477C209.299 206.102 210.202 207.637 211.646 208.45L249.931 230.572C251.376 231.384 253.091 231.384 254.536 230.572L292.82 208.45C294.265 207.637 295.168 206.102 295.168 204.477V94.4092C295.168 92.6936 294.265 91.1586 292.82 90.346L269.976 77.6146ZM266.455 189.94C266.455 190.391 266.274 190.752 265.913 190.933L252.82 198.518C252.459 198.698 252.008 198.698 251.646 198.518L238.554 190.933C238.193 190.752 238.012 190.301 238.012 189.94V174.77C238.012 174.319 238.193 173.958 238.554 173.777L251.646 166.193C252.008 166.012 252.459 166.012 252.82 166.193L265.913 173.777C266.274 173.958 266.455 174.409 266.455 174.77V189.94Z" fill="#333333"/>
<path d="M397.381 174.41C398.826 173.597 399.639 172.062 399.639 170.437V159.692C399.639 158.067 398.736 156.532 397.381 155.719L359.368 133.688C357.923 132.875 356.208 132.875 354.763 133.688L316.478 155.81C315.034 156.622 314.131 158.157 314.131 159.782V203.936C314.131 205.561 315.034 207.096 316.478 207.909L354.492 229.579C355.937 230.392 357.652 230.392 359.007 229.579L382.032 216.758C382.754 216.396 383.205 215.584 383.205 214.771C383.205 213.958 382.754 213.146 382.032 212.785L343.567 190.663C342.844 190.211 342.393 189.489 342.393 188.676V174.861C342.393 174.049 342.844 173.236 343.567 172.875L355.576 166.013C356.298 165.561 357.201 165.561 357.923 166.013L369.932 172.875C370.655 173.326 371.106 174.049 371.106 174.861V185.697C371.106 186.509 371.557 187.322 372.28 187.683C373.002 188.135 373.905 188.135 374.627 187.683L397.381 174.41Z" fill="#333333"/>
<path d="M356.478 172.333C356.749 172.152 357.11 172.152 357.381 172.333L364.695 176.577C364.966 176.757 365.146 177.028 365.146 177.389V185.877C365.146 186.238 364.966 186.509 364.695 186.689L357.381 190.933C357.11 191.114 356.749 191.114 356.478 190.933L349.164 186.689C348.893 186.509 348.713 186.238 348.713 185.877V177.389C348.713 177.028 348.893 176.757 349.164 176.577L356.478 172.333Z" fill="#539E43"/>
<path d="M149.977 133.867C148.533 133.055 146.817 133.055 145.372 133.867L107.359 155.809C105.914 156.621 105.102 158.156 105.102 159.782V203.754C105.102 205.38 106.004 206.915 107.359 207.727L145.372 229.669C146.817 230.481 148.533 230.481 149.977 229.669L187.991 207.727C189.436 206.915 190.248 205.38 190.248 203.754V159.782C190.248 158.156 189.345 156.621 187.991 155.809L149.977 133.867Z" fill="url(#paint0_linear_2130_204)"/>
<mask id="mask0_2130_204" style="mask-type:luminance" maskUnits="userSpaceOnUse" x="105" y="133" width="86" height="98">
<path d="M149.977 133.867C148.533 133.055 146.817 133.055 145.372 133.867L107.359 155.809C105.914 156.621 105.102 158.156 105.102 159.782V203.754C105.102 205.38 106.004 206.915 107.359 207.727L145.372 229.669C146.817 230.481 148.533 230.481 149.977 229.669L187.991 207.727C189.436 206.915 190.248 205.38 190.248 203.754V159.782C190.248 158.156 189.345 156.621 187.991 155.809L149.977 133.867Z" fill="white"/>
</mask>
<g mask="url(#mask0_2130_204)">
<path d="M188.081 155.809L149.887 133.867C149.526 133.687 149.074 133.506 148.713 133.416L105.914 206.734C106.275 207.186 106.727 207.547 107.178 207.818L145.372 229.759C146.456 230.391 147.72 230.572 148.894 230.211L189.074 156.712C188.803 156.351 188.442 156.08 188.081 155.809Z" fill="url(#paint1_linear_2130_204)"/>
</g>
<mask id="mask1_2130_204" style="mask-type:luminance" maskUnits="userSpaceOnUse" x="105" y="133" width="86" height="98">
<path d="M149.977 133.867C148.533 133.055 146.817 133.055 145.372 133.867L107.359 155.809C105.914 156.621 105.102 158.156 105.102 159.782V203.754C105.102 205.38 106.004 206.915 107.359 207.727L145.372 229.669C146.817 230.481 148.533 230.481 149.977 229.669L187.991 207.727C189.436 206.915 190.248 205.38 190.248 203.754V159.782C190.248 158.156 189.345 156.621 187.991 155.809L149.977 133.867Z" fill="white"/>
</mask>
<g mask="url(#mask1_2130_204)">
<path fill-rule="evenodd" clip-rule="evenodd" d="M188.172 207.728C189.256 207.096 190.068 206.013 190.429 204.839L148.533 133.326C147.45 133.146 146.276 133.236 145.283 133.868L107.359 155.719L148.262 230.301C148.804 230.211 149.436 230.031 149.978 229.76L188.172 207.728Z" fill="url(#paint2_linear_2130_204)"/>
<path fill-rule="evenodd" clip-rule="evenodd" d="M188.171 207.728L150.067 229.669C149.525 229.94 148.984 230.121 148.352 230.211L149.074 231.565L191.331 207.096V206.554L190.248 204.748C190.067 206.012 189.254 207.096 188.171 207.728Z" fill="url(#paint3_linear_2130_204)"/>
<path fill-rule="evenodd" clip-rule="evenodd" d="M188.171 207.728L150.067 229.669C149.525 229.94 148.984 230.121 148.352 230.211L149.074 231.565L191.331 207.096V206.554L190.248 204.748C190.067 206.012 189.254 207.096 188.171 207.728Z" fill="url(#paint4_linear_2130_204)"/>
</g>
<defs>
<linearGradient id="paint0_linear_2130_204" x1="5911.12" y1="1829.84" x2="1744.32" y2="8376.86" gradientUnits="userSpaceOnUse">
<stop stop-color="#41873F"/>
<stop offset="0.3288" stop-color="#418B3D"/>
<stop offset="0.6352" stop-color="#419637"/>
<stop offset="0.9319" stop-color="#3FA92D"/>
<stop offset="1" stop-color="#3FAE2A"/>
</linearGradient>
<linearGradient id="paint1_linear_2130_204" x1="3704.8" y1="5483.61" x2="14139.9" y2="-185.758" gradientUnits="userSpaceOnUse">
<stop offset="0.1376" stop-color="#41873F"/>
<stop offset="0.4032" stop-color="#54A044"/>
<stop offset="0.7136" stop-color="#66B848"/>
<stop offset="0.9081" stop-color="#6CC04A"/>
</linearGradient>
<linearGradient id="paint2_linear_2130_204" x1="-257.218" y1="4985.84" x2="8538.9" y2="4985.84" gradientUnits="userSpaceOnUse">
<stop offset="0.0919165" stop-color="#6CC04A"/>
<stop offset="0.2864" stop-color="#66B848"/>
<stop offset="0.5968" stop-color="#54A044"/>
<stop offset="0.8624" stop-color="#41873F"/>
</linearGradient>
<linearGradient id="paint3_linear_2130_204" x1="-4315.55" y1="1552.99" x2="4480.57" y2="1552.99" gradientUnits="userSpaceOnUse">
<stop offset="0.0919165" stop-color="#6CC04A"/>
<stop offset="0.2864" stop-color="#66B848"/>
<stop offset="0.5968" stop-color="#54A044"/>
<stop offset="0.8624" stop-color="#41873F"/>
</linearGradient>
<linearGradient id="paint4_linear_2130_204" x1="5762.06" y1="-5455.53" x2="3533.66" y2="6221.25" gradientUnits="userSpaceOnUse">
<stop stop-color="#41873F"/>
<stop offset="0.3288" stop-color="#418B3D"/>
<stop offset="0.6352" stop-color="#419637"/>
<stop offset="0.9319" stop-color="#3FA92D"/>
<stop offset="1" stop-color="#3FAE2A"/>
</linearGradient>
</defs>
</svg>
