<svg width="400" height="400" viewBox="0 0 400 400" fill="none" xmlns="http://www.w3.org/2000/svg">
<g clip-path="url(#clip0_2129_148)">
<path d="M398.364 225.395C412.362 115.815 334.976 15.6332 225.595 1.63575C116.215 -12.3617 15.6332 65.0243 1.63575 174.405C-12.3617 283.785 65.0243 384.167 174.405 398.364C283.985 412.362 384.167 334.976 398.364 225.395Z" fill="#FF6C37"/>
<path d="M272.187 128.413L187.803 212.797L164.007 189.002C246.992 106.017 255.19 113.215 272.187 128.413Z" fill="white"/>
<path d="M187.802 214.796C187.202 214.796 186.802 214.596 186.402 214.197L162.407 190.401C161.607 189.601 161.607 188.401 162.407 187.601C246.791 103.217 255.59 111.215 273.387 127.212C273.786 127.612 273.986 128.012 273.986 128.612C273.986 129.212 273.786 129.612 273.387 130.012L189.002 214.197C188.802 214.596 188.202 214.796 187.802 214.796ZM166.806 189.001L187.802 209.997L269.187 128.612C254.39 115.414 244.392 111.415 166.806 189.001Z" fill="#FF6C37"/>
<path d="M211.998 236.994L189.002 213.998L273.387 129.613C295.983 152.409 262.189 189.403 211.998 236.994Z" fill="white"/>
<path d="M211.998 238.993C211.398 238.993 210.998 238.793 210.598 238.393L187.602 215.397C187.202 214.998 187.202 214.598 187.202 213.998C187.202 213.398 187.402 212.998 187.802 212.598L272.187 128.213C272.987 127.413 274.186 127.413 274.986 128.213C280.185 133.012 282.985 139.811 282.785 146.81C282.385 169.006 257.19 197.201 213.597 238.393C212.998 238.793 212.398 238.993 211.998 238.993ZM191.801 213.998C204.599 226.995 209.998 232.194 211.998 234.194C245.592 202.2 278.186 169.406 278.386 146.81C278.586 141.611 276.586 136.412 273.187 132.412L191.801 213.998Z" fill="#FF6C37"/>
<path d="M164.406 189.601L181.403 206.598C181.803 206.998 181.803 207.398 181.403 207.798C181.203 207.997 181.203 207.997 181.003 207.997L145.809 215.596C144.01 215.796 142.41 214.596 142.01 212.797C141.81 211.797 142.21 210.797 142.81 210.197L163.206 189.801C163.606 189.401 164.206 189.201 164.406 189.601Z" fill="white"/>
<path d="M145.21 217.596C142.21 217.596 140.011 215.197 140.011 212.197C140.011 210.798 140.611 209.398 141.61 208.398L162.007 188.002C163.207 187.002 164.806 187.002 166.006 188.002L183.003 204.999C184.203 205.999 184.203 207.798 183.003 208.998C182.603 209.398 182.203 209.598 181.603 209.798L146.41 217.397C146.01 217.397 145.61 217.596 145.21 217.596ZM163.806 191.801L144.21 211.398C143.81 211.798 143.61 212.397 144.01 212.997C144.21 213.597 144.81 213.797 145.41 213.597L178.404 206.399L163.806 191.801Z" fill="#FF6C37"/>
<path d="M316.779 81.6204C303.982 69.2227 283.385 69.6226 270.988 82.6203C258.59 95.6179 258.99 116.014 271.987 128.412C282.586 138.61 298.583 140.41 311.18 132.811L288.385 110.015L316.779 81.6204Z" fill="white"/>
<path d="M294.383 139.411C275.386 139.411 259.989 124.013 259.989 105.017C259.989 86.0203 275.386 70.623 294.383 70.623C303.181 70.623 311.78 74.0224 318.179 80.2213C318.579 80.6212 318.779 81.0212 318.779 81.6211C318.779 82.221 318.579 82.6209 318.179 83.0208L291.184 110.016L312.38 131.212C313.18 132.012 313.18 133.212 312.38 134.012C312.18 134.212 312.18 134.212 311.98 134.412C306.781 137.611 300.582 139.411 294.383 139.411ZM294.383 74.8223C277.586 74.8223 263.989 88.4198 264.189 105.217C264.189 122.014 277.786 135.611 294.583 135.411C299.182 135.411 303.781 134.412 307.981 132.212L286.984 111.416C286.584 111.016 286.385 110.616 286.385 110.016C286.385 109.416 286.584 109.016 286.984 108.616L313.78 81.821C308.381 77.2219 301.582 74.8223 294.383 74.8223Z" fill="#FF6C37"/>
<path d="M317.379 82.2202L316.979 81.8203L288.384 110.015L310.98 132.611C313.179 131.211 315.379 129.612 317.179 127.812C329.976 115.214 329.976 94.818 317.379 82.2202Z" fill="white"/>
<path d="M311.18 134.811C310.58 134.811 310.18 134.611 309.781 134.211L286.985 111.415C286.585 111.015 286.385 110.616 286.385 110.016C286.385 109.416 286.585 109.016 286.985 108.616L315.38 80.221C316.179 79.4211 317.379 79.4211 318.179 80.221L318.779 80.6209C332.176 94.0185 332.177 115.615 318.979 129.212C316.979 131.212 314.78 133.011 312.38 134.411C311.78 134.611 311.38 134.811 311.18 134.811ZM291.184 110.016L311.38 130.212C312.98 129.212 314.58 127.812 315.779 126.613C327.177 115.215 327.777 96.618 316.779 84.6202L291.184 110.016Z" fill="#FF6C37"/>
<path d="M275.586 132.011C270.787 127.212 262.988 127.212 258.189 132.011L182.803 207.398L195.4 219.996L275.186 150.008C280.385 145.609 280.785 137.81 276.386 132.611C275.986 132.411 275.786 132.211 275.586 132.011Z" fill="white"/>
<path d="M195.201 221.995C194.601 221.995 194.201 221.795 193.801 221.395L181.203 208.797C180.404 207.997 180.404 206.798 181.203 205.998L256.59 130.611C262.189 125.012 271.187 125.012 276.786 130.611C282.385 136.21 282.385 145.209 276.786 150.808C276.586 151.008 276.386 151.208 276.186 151.408L196.401 221.395C196.201 221.795 195.801 221.995 195.201 221.995ZM185.603 207.398L195.401 217.196L273.787 148.408C278.186 144.809 278.586 138.21 274.987 133.811C271.387 129.412 264.788 129.012 260.389 132.611C260.189 132.811 259.989 133.011 259.589 133.211L185.603 207.398Z" fill="#FF6C37"/>
<path d="M125.013 293.184C124.213 293.584 123.813 294.383 124.013 295.183L127.413 309.581C128.213 311.58 127.013 313.98 124.813 314.58C123.214 315.18 121.414 314.58 120.414 313.38L98.418 291.584L170.205 219.797L195.001 220.197L211.798 236.994C207.798 240.393 183.603 263.789 125.013 293.184Z" fill="white"/>
<path d="M123.414 316.579C121.814 316.579 120.214 315.979 119.214 314.779L97.4183 292.983C97.0183 292.583 96.8184 292.183 96.8184 291.584C96.8184 290.984 97.0183 290.584 97.4183 290.184L169.205 218.397C169.605 217.997 170.205 217.797 170.605 217.797L195.401 218.197C196 218.197 196.4 218.397 196.8 218.797L213.597 235.594C213.997 235.994 214.197 236.593 214.197 237.193C214.197 237.793 213.997 238.193 213.397 238.593L211.998 239.793C190.801 258.39 162.007 276.986 126.213 294.783L129.612 308.98C130.212 311.58 129.013 314.379 126.613 315.779C125.413 316.379 124.413 316.579 123.414 316.579ZM101.418 291.584L122.014 311.98C122.614 312.98 123.813 313.38 124.813 312.78C125.813 312.18 126.213 310.98 125.613 309.98L122.214 295.583C121.814 293.783 122.614 292.183 124.213 291.384C159.607 273.587 188.202 255.19 209.198 236.993L194.401 222.196L171.405 221.796L101.418 291.584Z" fill="#FF6C37"/>
<path d="M81.4212 308.781L98.6181 291.584L124.213 317.179L83.4208 314.38C81.6212 314.18 80.4214 312.58 80.6213 310.781C80.6213 309.981 80.8213 309.181 81.4212 308.781Z" fill="white"/>
<path d="M124.214 318.977L83.2211 316.178C80.2216 315.978 78.222 313.378 78.422 310.379C78.6219 309.179 79.0218 307.979 80.0217 307.18L97.2186 289.983C98.0184 289.183 99.2182 289.183 100.018 289.983L125.613 315.578C126.213 316.178 126.413 316.978 126.013 317.778C125.613 318.578 125.014 318.977 124.214 318.977ZM98.6183 294.382L82.8212 310.179C82.2213 310.579 82.2213 311.579 82.8212 311.979C83.0211 312.179 83.2211 312.379 83.621 312.379L119.015 314.778L98.6183 294.382Z" fill="#FF6C37"/>
<path d="M163.207 228.995C162.007 228.995 161.207 227.996 161.207 226.996C161.207 226.396 161.407 225.996 161.807 225.596L181.203 206.2C182.003 205.4 183.203 205.4 184.003 206.2L196.601 218.797C197.201 219.397 197.401 219.997 197.201 220.797C197.001 221.397 196.401 221.997 195.601 222.197L163.607 228.995C163.407 228.995 163.207 228.995 163.207 228.995ZM182.603 210.399L169.406 223.596L191.002 218.997L182.603 210.399Z" fill="#FF6C37"/>
<path d="M195.001 220.197L173.004 224.996C171.405 225.396 169.805 224.396 169.405 222.796C169.205 221.796 169.405 220.796 170.205 219.997L182.403 207.799L195.001 220.197Z" fill="white"/>
<path d="M172.605 226.996C169.805 226.996 167.605 224.796 167.605 221.997C167.605 220.597 168.205 219.397 169.005 218.397L181.203 206.2C182.003 205.4 183.203 205.4 184.003 206.2L196.6 218.797C197.2 219.397 197.4 219.997 197.2 220.797C197 221.397 196.4 221.997 195.6 222.197L173.604 226.996C173.204 226.996 172.805 226.996 172.605 226.996ZM182.603 210.399L171.805 221.197C171.405 221.597 171.405 221.997 171.605 222.397C171.805 222.797 172.205 222.996 172.805 222.996L191.201 218.997L182.603 210.399Z" fill="#FF6C37"/>
<path d="M317.579 101.418C317.179 100.218 315.779 99.618 314.579 100.018C313.379 100.418 312.779 101.818 313.179 103.017C313.179 103.217 313.379 103.417 313.379 103.617C314.579 106.017 314.179 109.016 312.579 111.216C311.78 112.216 311.98 113.615 312.779 114.415C313.779 115.215 315.179 115.015 315.979 114.015C318.978 110.216 319.578 105.417 317.579 101.418Z" fill="#FF6C37"/>
</g>
<defs>
<clipPath id="clip0_2129_148">
<rect width="400" height="400" fill="white"/>
</clipPath>
</defs>
</svg>
