<svg width="400" height="400" viewBox="0 0 400 400" fill="none" xmlns="http://www.w3.org/2000/svg">
<path d="M378.741 161.12C378.741 137.156 348.73 114.444 302.716 100.36C313.335 53.4613 308.616 16.1491 287.82 4.20319C283.026 1.40106 277.423 0.0737039 271.303 0.0737039V16.5178C274.695 16.5178 277.423 17.1814 279.709 18.4349C289.737 24.1866 294.089 46.0873 290.695 74.2558C289.886 81.1874 288.558 88.4875 286.936 95.9352C272.482 92.3957 256.702 89.6675 240.111 87.8977C230.156 74.2558 219.833 61.8675 209.435 51.0279C233.474 28.6848 256.039 16.4439 271.377 16.4439V0C251.097 0 224.552 14.453 197.711 39.5244C170.869 14.6004 144.323 0.294987 124.045 0.294987V16.7389C139.309 16.7389 161.947 28.906 185.986 51.1016C175.662 61.9414 165.338 74.2558 155.531 87.8977C138.866 89.6675 123.086 92.3957 108.633 96.0089C106.936 88.6351 105.683 81.4822 104.798 74.6245C101.333 46.456 105.609 24.5553 115.565 18.7299C117.776 17.4025 120.652 16.8127 124.045 16.8127V0.368691C117.85 0.368691 112.246 1.69605 107.38 4.49817C86.6584 16.4439 82.0134 53.6824 92.7049 100.433C46.8392 114.591 16.9746 137.23 16.9746 161.12C16.9746 185.087 46.9865 207.799 93 221.882C82.3811 268.781 87.1003 306.093 107.896 318.039C112.689 320.84 118.292 322.168 124.487 322.168C144.765 322.168 171.312 307.715 198.153 282.644C224.994 307.568 251.541 321.874 271.819 321.874C278.012 321.874 283.617 320.547 288.484 317.744C309.204 305.797 313.851 268.559 303.158 221.81C348.876 207.725 378.741 185.013 378.741 161.12ZM282.733 111.937C280.004 121.45 276.612 131.256 272.777 141.063C269.754 135.165 266.584 129.266 263.118 123.366C259.726 117.467 256.112 111.716 252.499 106.111C262.969 107.66 273.072 109.577 282.733 111.937ZM248.959 190.469C243.207 200.425 237.309 209.863 231.189 218.639C220.2 219.597 209.067 220.113 197.858 220.113C186.723 220.113 175.588 219.597 164.676 218.711C158.555 209.936 152.581 200.572 146.83 190.69C141.225 181.031 136.138 171.223 131.492 161.343C136.064 151.461 141.225 141.579 146.757 131.92C152.508 121.966 158.407 112.527 164.527 103.752C175.515 102.793 186.649 102.277 197.858 102.277C208.993 102.277 220.128 102.793 231.04 103.678C237.161 112.453 243.135 121.818 248.886 131.699C254.491 141.359 259.577 151.166 264.224 161.048C259.577 170.928 254.491 180.81 248.959 190.469ZM272.777 180.884C276.648 190.494 280.044 200.288 282.954 210.231C273.293 212.591 263.118 214.582 252.573 216.131C256.186 210.454 259.798 204.628 263.192 198.654C266.584 192.756 269.754 186.782 272.777 180.884ZM198.005 259.564C191.147 252.484 184.289 244.594 177.506 235.967C184.142 236.262 190.926 236.483 197.784 236.483C204.716 236.483 211.573 236.336 218.284 235.967C211.955 244.192 205.185 252.07 198.005 259.564ZM143.143 216.131C132.672 214.582 122.57 212.665 112.91 210.305C115.638 200.793 119.031 190.985 122.865 181.178C125.889 187.077 129.06 192.977 132.524 198.875C135.99 204.775 139.53 210.526 143.143 216.131ZM197.637 62.6788C204.495 69.7576 211.352 77.6479 218.136 86.2754C211.499 85.9804 204.716 85.7593 197.858 85.7593C190.926 85.7593 184.068 85.9067 177.359 86.2754C183.688 78.0501 190.457 70.1731 197.637 62.6788ZM143.069 106.111C139.456 111.789 135.843 117.615 132.451 123.587C129.06 129.487 125.889 135.386 122.865 141.284C118.993 131.675 115.598 121.88 112.689 111.937C122.349 109.651 132.524 107.66 143.069 106.111ZM76.3347 198.433C50.2312 187.298 33.3448 172.699 33.3448 161.12C33.3448 149.544 50.2312 134.87 76.3347 123.809C82.6763 121.08 89.6082 118.647 96.7611 116.361C100.964 130.814 106.495 145.857 113.352 161.269C106.569 176.607 101.111 191.575 96.9821 205.955C89.6824 203.668 82.7505 201.162 76.3347 198.433ZM116.007 303.807C105.978 298.056 101.627 276.155 105.02 247.986C105.832 241.055 107.157 233.754 108.78 226.306C123.234 229.846 139.014 232.575 155.605 234.344C165.559 247.986 175.883 260.374 186.281 271.214C162.242 293.558 139.677 305.797 124.339 305.797C121.021 305.725 118.22 305.06 116.007 303.807ZM290.918 247.618C294.382 275.786 290.107 297.687 280.151 303.512C277.94 304.839 275.064 305.43 271.67 305.43C256.407 305.43 233.769 293.263 209.73 271.067C220.054 260.227 230.377 247.913 240.185 234.27C256.85 232.501 272.63 229.772 287.083 226.159C288.779 233.607 290.107 240.76 290.918 247.618ZM319.307 198.433C312.965 201.162 306.033 203.596 298.88 205.881C294.677 191.429 289.147 176.386 282.289 160.974C289.075 145.636 294.531 130.667 298.66 116.287C305.961 118.573 312.891 121.08 319.381 123.809C345.485 134.943 362.371 149.544 362.371 161.12C362.297 172.699 345.41 187.372 319.307 198.433Z" fill="#087EA4"/>
<path d="M197.784 194.82C216.397 194.82 231.484 179.733 231.484 161.12C231.484 142.509 216.397 127.422 197.784 127.422C179.173 127.422 164.086 142.509 164.086 161.12C164.086 179.733 179.173 194.82 197.784 194.82ZM33.4019 380.19H22.2776V399.349H16V351.989H31.678C37.0123 351.989 41.1108 353.204 43.9731 355.633C46.8572 358.06 48.2993 361.596 48.2993 366.236C48.2993 369.185 47.4969 371.754 45.8922 373.946C44.3093 376.136 42.0975 377.773 39.2568 378.856L50.381 398.958V399.349H43.6804L33.4019 380.19ZM22.2776 375.084H31.8732C34.9741 375.084 37.4352 374.281 39.2568 372.676C41.0999 371.072 42.0215 368.925 42.0215 366.236C42.0215 363.309 41.1433 361.065 39.3869 359.503C37.6521 357.942 35.1367 357.15 31.8406 357.129H22.2776V375.084ZM70.7435 400C65.9723 400 62.0906 398.438 59.0982 395.315C56.1056 392.171 54.6094 387.975 54.6094 382.728V381.621C54.6094 378.131 55.2708 375.019 56.5935 372.287C57.938 369.532 59.8029 367.385 62.1882 365.846C64.5953 364.285 67.1974 363.503 69.9947 363.503C74.5706 363.503 78.1272 365.01 80.6632 368.025C83.2009 371.039 84.4689 375.354 84.4689 380.97V383.475H60.6269C60.7136 386.946 61.7221 389.754 63.6519 391.901C65.6036 394.024 68.0756 395.088 71.0683 395.088C73.1937 395.088 74.9927 394.654 76.4668 393.787C77.9426 392.92 79.232 391.77 80.3384 390.339L84.0138 393.202C81.0639 397.733 76.6416 400 70.7435 400ZM69.9947 368.448C67.5661 368.448 65.5277 369.337 63.8797 371.115C62.2316 372.872 61.2124 375.344 60.8221 378.531H78.4521V378.076C78.2789 375.019 77.4545 372.655 75.9804 370.984C74.5046 369.294 72.5095 368.448 69.9947 368.448ZM113.191 399.349C112.843 398.654 112.561 397.419 112.345 395.64C109.547 398.546 106.208 400 102.326 400C98.8571 400 96.0061 399.024 93.7719 397.072C91.5607 395.098 90.4543 392.605 90.4543 389.591C90.4543 385.927 91.8427 383.086 94.6178 381.069C97.4143 379.029 101.34 378.01 106.393 378.01H112.248V375.247C112.248 373.143 111.618 371.472 110.361 370.237C109.103 368.979 107.248 368.351 104.798 368.351C102.651 368.351 100.852 368.892 99.3996 369.977C97.9469 371.06 97.2197 372.373 97.2197 373.913H91.1699C91.1699 372.157 91.7883 370.465 93.0233 368.838C94.2814 367.19 95.9732 365.889 98.0986 364.935C100.245 363.982 102.597 363.503 105.156 363.503C109.212 363.503 112.388 364.522 114.686 366.562C116.985 368.579 118.177 371.365 118.265 374.92V391.119C118.265 394.351 118.677 396.92 119.501 398.828V399.349H113.191ZM103.205 394.763C105.092 394.763 106.881 394.275 108.572 393.299C110.262 392.323 111.488 391.055 112.248 389.493V382.273H107.53C100.158 382.273 96.4711 384.429 96.4711 388.745C96.4711 390.631 97.101 392.107 98.3575 393.169C99.6156 394.23 101.231 394.763 103.205 394.763ZM141.814 395.088C143.961 395.088 145.837 394.437 147.442 393.136C149.046 391.835 149.935 390.209 150.108 388.257H155.802C155.693 390.273 154.999 392.192 153.719 394.014C152.439 395.836 150.726 397.289 148.579 398.373C146.454 399.457 144.2 400 141.814 400C137.022 400 133.205 398.405 130.364 395.218C127.546 392.008 126.136 387.628 126.136 382.077V381.069C126.136 377.643 126.765 374.595 128.023 371.929C129.281 369.261 131.08 367.19 133.423 365.716C135.786 364.24 138.572 363.503 141.781 363.503C145.728 363.503 149.003 364.686 151.605 367.05C154.228 369.413 155.627 372.482 155.802 376.254H150.108C149.935 373.977 149.067 372.112 147.506 370.66C145.968 369.185 144.058 368.448 141.781 368.448C138.724 368.448 136.35 369.553 134.658 371.766C132.989 373.956 132.153 377.133 132.153 381.297V382.434C132.153 386.489 132.989 389.612 134.658 391.802C136.328 393.993 138.714 395.088 141.814 395.088ZM170.731 355.633V364.155H177.301V368.806H170.731V390.631C170.731 392.041 171.024 393.103 171.609 393.818C172.195 394.512 173.192 394.86 174.602 394.86C175.295 394.86 176.249 394.73 177.463 394.47V399.349C175.88 399.782 174.342 400 172.844 400C170.157 400 168.129 399.185 166.762 397.56C165.396 395.934 164.714 393.624 164.714 390.631V368.806H158.305V364.155H164.714V355.633H170.731ZM238.225 399.349H231.946L208.104 362.854V399.349H201.827V351.989H208.104L232.012 388.647V351.989H238.225V399.349ZM270.101 399.349C269.753 398.654 269.471 397.419 269.255 395.64C266.457 398.546 263.118 400 259.236 400C255.767 400 252.915 399.024 250.682 397.072C248.471 395.098 247.364 392.605 247.364 389.591C247.364 385.927 248.751 383.086 251.528 381.069C254.324 379.029 258.25 378.01 263.303 378.01H269.158V375.247C269.158 373.143 268.528 371.472 267.27 370.237C266.013 368.979 264.158 368.351 261.708 368.351C259.561 368.351 257.762 368.892 256.31 369.977C254.857 371.06 254.13 372.373 254.13 373.913H248.08C248.08 372.157 248.698 370.465 249.933 368.838C251.191 367.19 252.883 365.889 255.009 364.935C257.156 363.982 259.507 363.503 262.066 363.503C266.121 363.503 269.298 364.522 271.596 366.562C273.895 368.579 275.087 371.365 275.175 374.92V391.119C275.175 394.351 275.587 396.92 276.411 398.828V399.349H270.101ZM260.115 394.763C262.002 394.763 263.791 394.275 265.482 393.299C267.173 392.323 268.398 391.055 269.158 389.493V382.273H264.44C257.068 382.273 253.381 384.429 253.381 388.745C253.381 390.631 254.011 392.107 255.268 393.169C256.526 394.23 258.142 394.763 260.115 394.763ZM292.772 355.633V364.155H299.342V368.806H292.772V390.631C292.772 392.041 293.065 393.103 293.65 393.818C294.236 394.512 295.233 394.86 296.643 394.86C297.336 394.86 298.29 394.73 299.506 394.47V399.349C297.921 399.782 296.383 400 294.885 400C292.198 400 290.17 399.185 288.803 397.56C287.437 395.934 286.755 393.624 286.755 390.631V368.806H280.347V364.155H286.755V355.633H292.772ZM312.939 399.349H306.921V364.155H312.939V399.349ZM306.433 354.819C306.433 353.844 306.726 353.02 307.311 352.347C307.918 351.674 308.807 351.34 309.978 351.34C311.15 351.34 312.039 351.674 312.646 352.347C313.252 353.02 313.556 353.844 313.556 354.819C313.556 355.795 313.252 356.608 312.646 357.259C312.039 357.909 311.15 358.235 309.978 358.235C308.807 358.235 307.918 357.909 307.311 357.259C306.726 356.608 306.433 355.795 306.433 354.819ZM334.211 391.185L342.928 364.155H349.076L336.456 399.349H331.868L319.119 364.155H325.266L334.211 391.185ZM369.015 400C364.244 400 360.363 398.438 357.37 395.315C354.377 392.171 352.882 387.975 352.882 382.728V381.621C352.882 378.131 353.543 375.019 354.865 372.287C356.209 369.532 358.074 367.385 360.46 365.846C362.868 364.285 365.469 363.503 368.266 363.503C372.842 363.503 376.398 365.01 378.936 368.025C381.472 371.039 382.742 375.354 382.742 380.97V383.475H358.899C358.986 386.946 359.993 389.754 361.924 391.901C363.875 394.024 366.348 395.088 369.339 395.088C371.465 395.088 373.265 394.654 374.74 393.787C376.214 392.92 377.505 391.77 378.611 390.339L382.287 393.202C379.337 397.733 374.913 400 369.015 400ZM368.266 368.448C365.839 368.448 363.799 369.337 362.152 371.115C360.503 372.872 359.484 375.344 359.095 378.531H376.723V378.076C376.55 375.019 375.726 372.655 374.251 370.984C372.777 369.294 370.782 368.448 368.266 368.448Z" fill="#087EA4"/>
</svg>
