<svg width="400" height="400" viewBox="0 0 400 400" fill="none" xmlns="http://www.w3.org/2000/svg">
<path d="M277.158 274.582C291.919 273.055 303.118 260.329 302.609 245.058C302.1 229.787 289.374 217.57 274.104 217.57H273.086C257.306 218.08 245.09 231.314 245.599 247.095C246.108 254.73 249.162 261.347 253.743 265.929C236.436 300.034 209.968 324.977 170.264 345.847C143.286 360.1 115.29 365.191 87.2945 361.627C64.3887 358.573 46.5731 348.393 35.3748 331.594C19.0862 306.652 17.5592 279.673 31.3026 252.694C40.9739 233.351 56.2444 219.098 65.9158 211.971C63.8797 205.354 60.8256 194.155 59.2985 186.01C-14.5089 239.459 -6.87364 311.742 15.5231 345.847C32.3206 371.299 66.4248 387.079 104.092 387.079C114.272 387.079 124.453 386.061 134.633 383.516C199.787 370.79 249.162 332.103 277.158 274.582ZM366.745 211.462C328.059 166.158 271.05 141.215 205.895 141.215H197.751C193.17 132.053 183.499 125.944 172.809 125.944H171.791C156.012 126.453 143.795 139.688 144.304 155.468C144.813 170.739 157.539 182.956 172.809 182.956H173.827C185.026 182.447 194.697 175.321 198.769 165.649H207.931C246.617 165.649 283.266 176.848 316.352 198.736C341.803 215.534 360.127 237.423 370.308 263.893C378.961 285.272 378.452 306.143 369.29 323.959C355.037 350.938 331.114 365.7 299.554 365.7C279.194 365.7 259.851 359.591 249.671 355.01C244.072 360.1 233.891 368.245 226.765 373.335C248.653 383.516 271.05 389.115 292.428 389.115C341.294 389.115 377.434 362.137 391.178 335.158C405.939 305.634 404.921 254.73 366.745 211.462ZM108.164 283.236C108.673 298.507 121.399 310.724 136.669 310.724H137.687C153.467 310.215 165.683 296.98 165.174 281.2C164.665 265.929 151.94 253.712 136.669 253.712H135.651C134.633 253.712 133.106 253.712 132.088 254.221C111.218 219.607 102.565 181.938 105.619 141.215C107.655 110.673 117.835 84.2032 135.651 62.3147C150.413 43.4804 178.917 34.3177 198.26 33.8087C252.216 32.7906 275.122 99.9833 276.649 126.962C283.266 128.489 294.464 132.053 302.1 134.598C295.991 52.134 245.09 9.375 196.224 9.375C150.413 9.375 108.164 42.4623 91.3666 91.3297C67.9518 156.486 83.2223 219.098 111.727 268.474C109.182 272.037 107.655 277.637 108.164 283.236Z" fill="#764ABC"/>
</svg>
