<svg width="400" height="400" viewBox="0 0 400 400" fill="none" xmlns="http://www.w3.org/2000/svg">
<path d="M132.655 244.408C126.307 248.377 116.743 254.809 109.343 261.804C97.1958 273.276 94.6538 289.188 101.062 292.906C106.99 296.342 120.829 292.253 130.733 281.451C141.128 270.109 145.414 255.73 140.987 239.408C140.467 239.718 139.956 240.029 139.455 240.319L139.466 240.341L138.794 240.722C136.21 242.264 134.098 243.537 132.655 244.408ZM311.046 239.258C307.45 247.072 307.27 249.587 308.362 250.369C313.579 248.495 322.212 243.977 322.28 231.872C322.291 230.059 321.891 228.114 321.249 226.081C315.671 231.02 312.456 236.192 311.046 239.258ZM367.032 215.631C353.093 214.006 342.217 215.961 333.776 219.478C335.339 223.546 336.541 227.784 336.71 232.053C337.102 241.422 330.652 248.356 323.932 253.306C320.007 256.192 315.831 258.115 312.325 259.277C309.522 260.459 305.796 261.681 303.152 261.142C297.323 259.957 294.22 254.779 298.186 243.356C300.328 237.175 306.506 227.765 316.48 219.659C314.207 214.98 311.674 210.211 310.382 205.83C307.837 197.194 307.069 191.973 307.069 191.973C307.069 191.973 298.848 209.018 288.242 224.518C287.63 225.419 287.02 226.302 286.408 227.183C288.491 232.024 290.132 237.143 290.355 242.305C290.745 251.673 286.689 258.757 279.959 263.696C276.315 266.383 272.429 268.238 269.093 269.419C266.961 270.35 262.624 271.882 256.456 272.294C253.082 272.525 249.837 272.316 248.026 270.943C245.532 269.059 245.231 266.734 246.523 263.557C247.615 260.861 255.786 251.534 262.636 243.367C264.528 241.112 266.33 238.808 267.943 236.674L267.903 236.582C267.903 236.582 269.144 234.981 271.158 232.185C268.654 226.794 265.48 221.182 263.988 216.092C261.443 207.456 260.673 202.234 260.673 202.234C260.673 202.234 252.34 223.598 243.659 240.652C236.941 253.86 232.453 261.864 230.431 265.371L230.411 265.512C230.411 265.512 230.109 266.024 229.589 266.825L229.2 267.475L229.189 267.415C226.935 270.743 221.878 277.265 216.852 277.265C203.052 277.265 208.119 249.239 208.119 249.239C208.119 249.239 204.085 259.62 199.537 268.528C195.833 275.792 192.459 281.946 185.078 281.946C182.956 281.946 179.59 281.885 176.796 279.228C170.457 273.206 165.611 257.915 166.561 246.072C167.372 236.002 168.924 229.027 171.047 223.208C167.261 225.27 162.886 227.717 158.43 230.332L151.579 234.369L151.801 234.771C157.467 245.733 158.98 269.751 146.622 288.188C134.266 306.634 111.264 317.857 88.8531 311.625C81.6217 309.61 70.6975 294.651 80.12 273.799C88.4313 255.411 121.648 238.027 130.401 233.688L132.804 232.365C115.351 217.094 71.7692 196.494 65.6613 164.85C63.9385 155.942 68.1146 134.64 94.2702 110.151C116.27 89.5597 146.874 73.7877 175.144 63.7372C222.639 46.8539 272.82 56.813 280.541 87.0942C288.131 116.874 262.296 152.496 229.209 165.302C199.668 176.734 175.244 174.921 165.209 171.625C153.803 167.878 147.114 160.352 145.482 156.103C144.841 154.44 143.738 151.646 145.482 150.683C146.553 150.092 146.983 150.233 149.847 153.399C152.572 156.405 163.526 164.472 184.336 162.136C238.943 156.014 271.837 113.558 261.443 90.712C254.164 74.7201 212.075 67.5051 159.491 93.7277C95.3009 125.732 91.817 152.115 91.2668 162.136C89.7637 189.7 125.263 204.2 144.471 224.7L145.211 225.512C148.805 223.528 152.602 221.434 156.326 219.39C166.011 214.069 175.144 209.078 179.399 206.753C186.16 196.926 199.877 186.083 209.781 186.083C225.614 186.083 220.176 208.839 220.176 208.839C220.176 208.839 220.497 207.797 220.927 207.788C221.377 207.775 223.121 204.79 228.008 206.573C233.035 208.417 231.892 211.945 231.923 212.305C231.984 213.005 225.985 233.236 223.492 246.212C222.299 252.405 222.99 256.915 223.342 256.915C223.832 256.915 224.834 255.341 225.765 253.648L225.745 253.598C225.745 253.598 226.445 252.316 227.618 250.012L227.848 249.53L227.858 249.552C229.241 246.846 231.182 242.868 233.425 237.938C237.821 228.249 254.594 190.843 256.016 186.705C257.437 182.567 258.179 178.289 258.88 176.454C259.571 174.62 265.5 173.238 272.429 173.288C279.358 173.339 280.061 176.294 280.109 176.906C280.16 177.516 276.815 185.724 276.044 191.524C275.283 197.326 276.015 200.22 276.646 205.091C277.057 208.276 279.048 212.316 281.403 216.895C288.573 205.171 301.189 182.746 302.401 176.463C303.231 172.166 304.564 168.047 305.265 166.212C305.966 164.379 311.885 162.997 318.814 163.046C325.743 163.097 326.444 166.053 326.494 166.664C326.545 167.276 323.189 175.482 322.429 181.284C321.667 187.075 322.4 189.982 323.029 194.851C323.571 199.019 326.794 204.62 329.99 210.992C338.711 206.693 348.976 203.808 360.994 203.748C365.97 203.719 371.749 204.219 374.733 205.15V109.288C374.733 102.525 371.267 96.2928 365.41 92.9167L209.032 2.53311C203.185 -0.844369 196.024 -0.844369 190.176 2.53311L34.2292 92.873C28.3808 96.2505 25.2559 102.494 25.2559 109.246V290.091C25.2559 296.843 28.3999 303.086 34.2388 306.462L190.437 396.873C196.284 400.261 203.375 400.261 209.222 396.873L365.491 306.462C371.338 303.075 374.744 296.842 374.744 290.091V217.004C372.76 216.42 369.857 215.96 367.032 215.631ZM198.797 206.16C195.443 209.917 189.725 219.606 187.051 227.715C181.734 243.816 184.037 260.18 187.802 261.162C192.198 262.313 199.409 240.791 202.861 232.373C205.025 227.102 213.437 203.707 211.594 200.581C210.156 198.136 204.195 200.11 198.797 206.16ZM259.634 260.429C259.634 260.429 258.573 261.433 259.032 261.713C259.653 262.084 260.995 261.602 262.457 260.84C266.594 258.237 275.876 251.743 275.896 242.133C275.896 241.853 275.885 241.583 275.866 241.292C273.713 244.118 271.73 246.633 270.018 248.767C267.093 252.403 259.634 260.429 259.634 260.429Z" fill="#8CC84B"/>
</svg>
