<svg width="400" height="400" viewBox="0 0 400 400" fill="none" xmlns="http://www.w3.org/2000/svg">
<g clip-path="url(#clip0_2135_261)">
<path fill-rule="evenodd" clip-rule="evenodd" d="M200 0C239.556 0 278.224 11.7298 311.114 33.7061C344.004 55.6823 369.638 86.9181 384.776 123.463C399.913 160.009 403.874 200.222 396.157 239.018C388.44 277.814 369.392 313.451 341.421 341.421C313.451 369.392 277.814 388.44 239.018 396.157C200.222 403.874 160.009 399.913 123.463 384.776C86.9181 369.638 55.6823 344.004 33.7061 311.114C11.7298 278.224 0 239.556 0 200C0 146.957 21.0714 96.0859 58.5786 58.5786C96.0859 21.0714 146.957 0 200 0Z" fill="#CC6699"/>
<path d="M309.775 99.8999C301.85 68.8249 250.312 58.6499 201.537 75.9249C170.991 86.1893 142.769 102.377 118.487 123.562C91.625 148.687 87.3375 170.562 89.1 179.7C95.35 211.95 139.512 233.025 157.675 248.662V248.75C152.325 251.387 113.125 271.25 103.925 291.5C94.25 312.9 105.462 328.25 112.9 330.312C124.066 333.001 135.794 332.126 146.438 327.81C157.082 323.495 166.108 315.956 172.25 306.25C177.326 298.386 180.501 289.449 181.525 280.146C182.549 270.843 181.394 261.429 178.15 252.65C186.898 250.427 195.992 249.905 204.937 251.112C235.637 254.7 241.662 273.862 240.512 281.887C239.972 284.744 238.822 287.451 237.142 289.823C235.461 292.196 233.29 294.179 230.775 295.637C228.625 296.975 227.962 297.425 228.15 298.425C228.412 299.862 229.4 299.812 231.237 299.5C235.851 298.047 239.916 295.23 242.897 291.421C245.878 287.613 247.635 282.99 247.937 278.162C248.675 259.412 230.662 238.337 198.762 238.875C189.497 238.61 180.252 239.877 171.4 242.625C170.962 242.125 170.512 241.625 170.05 241.125C150.325 220.087 113.875 205.2 115.412 176.912C115.975 166.625 119.55 139.55 185.412 106.7C239.412 79.7874 282.637 87.1999 290.112 103.612C300.787 127.062 267.012 170.625 210.937 176.912C204.74 178.171 198.338 178.017 192.208 176.463C186.077 174.91 180.375 171.996 175.525 167.937C172.575 164.687 172.137 164.55 171.037 165.15C169.25 166.137 170.387 169.012 171.037 170.712C173.185 174.582 176.083 177.984 179.562 180.719C183.042 183.453 187.032 185.466 191.3 186.637C213.347 191.428 236.343 189.154 257.025 180.137C291.037 167.025 317.562 130.462 309.775 99.8999ZM165.225 258.287C167.708 266.846 167.581 275.951 164.862 284.437C164.571 285.321 164.25 286.196 163.9 287.062C163.55 287.929 163.171 288.762 162.762 289.562C160.659 293.867 157.934 297.838 154.675 301.35C144.512 312.437 130.3 316.637 124.212 313.1C117.637 309.287 120.925 293.65 132.712 281.187C141.77 272.231 152.212 264.794 163.637 259.162L165.225 258.287Z" fill="white"/>
</g>
<defs>
<clipPath id="clip0_2135_261">
<rect width="400" height="400" fill="white"/>
</clipPath>
</defs>
</svg>
