<svg width="400" height="400" viewBox="0 0 400 400" fill="none" xmlns="http://www.w3.org/2000/svg">
<g clip-path="url(#clip0_2129_143)">
<path d="M198.531 399.995C91.9502 399.26 -0.714218 310.809 0.00414918 198.435C0.695547 90.3038 90.5503 -0.735657 201.735 0.00448143C309.792 0.722562 400.958 90.419 399.992 200.305C400.887 309.193 309.275 400.765 198.531 399.995ZM198.531 399.995C91.9502 399.26 -0.714218 310.809 0.00414918 198.435C0.695547 90.3038 90.5503 -0.735657 201.735 0.00448143C309.792 0.722562 400.958 90.419 399.992 200.305C400.887 309.193 309.275 400.765 198.531 399.995Z" fill="#49A32B"/>
<path d="M263.449 200.057C263.004 208.322 255.783 215.186 248.666 213.988C248.632 213.988 248.596 213.988 248.56 213.988C240.677 213.999 234.279 207.616 234.27 199.733C234.538 191.829 241.094 185.599 249 185.733C256.883 185.771 263.874 192.433 263.449 200.057ZM136.689 280.156C139.662 280.244 142.636 280.18 146.064 280.18V301.72C124.76 305.322 107.211 299.274 102.904 281.265C101.43 274.644 100.523 267.908 100.191 261.131C99.734 253.957 100.526 246.701 99.9787 239.539C98.4638 219.833 95.9106 213.105 77 212.174V187.648C78.3553 187.331 79.7298 187.097 81.1128 186.942C91.4809 186.431 95.8511 183.252 98.1702 173.039C99.2255 167.301 99.8511 161.493 100.036 155.661C100.857 144.384 100.566 132.925 102.445 121.831C105.16 105.788 115.119 97.9948 131.57 97.1225C136.251 96.8714 140.947 97.0842 146.251 97.0842V119.101C144.068 119.256 142.068 119.574 140.081 119.514C126.674 119.103 125.981 123.669 125.002 134.767C124.391 141.727 125.234 148.805 124.76 155.788C124.264 162.737 123.334 169.65 121.977 176.484C120.043 186.388 113.953 193.754 105.515 200.005C121.896 210.665 123.76 227.229 124.823 244.048C125.396 253.086 125.134 262.188 126.051 271.182C126.766 278.163 129.481 279.944 136.689 280.156ZM150.496 185.733C150.581 185.733 150.664 185.733 150.749 185.733C158.581 185.863 164.828 192.316 164.698 200.15C164.698 200.408 164.689 200.663 164.674 200.918C164.234 208.574 157.672 214.42 150.017 213.98C149.709 213.986 149.402 213.98 149.094 213.965C141.298 213.578 135.291 206.944 135.679 199.148C136.066 191.352 142.7 185.346 150.496 185.733ZM199.302 185.733C207.868 185.667 213.557 191.218 213.602 199.686C213.649 208.382 208.255 213.946 199.745 213.982C191.089 214.02 185.391 208.546 185.345 200.129C185.319 199.699 185.313 199.269 185.326 198.839C185.566 191.361 191.823 185.493 199.302 185.733ZM301.489 175.005C303.768 183.516 308.204 186.508 317.164 186.916C318.632 186.984 320.094 187.233 322.106 187.456V211.976C321.017 212.333 319.9 212.601 318.766 212.776C306.76 213.522 301.287 218.448 300.074 230.486C299.3 238.171 299.364 245.942 298.832 253.654C298.609 262.122 297.838 270.567 296.526 278.935C293.462 294.097 283.996 301.661 268.355 302.584C263.321 302.882 258.251 302.631 252.823 302.631V280.716C255.745 280.535 258.323 280.286 260.909 280.225C270.253 280.001 273.557 276.988 274.015 267.708C274.521 257.512 274.743 247.303 275.198 237.105C275.86 222.365 279.896 209.197 293.628 200.003C285.77 194.401 279.462 187.616 277.828 178.467C275.851 167.378 275.213 156.044 274.149 144.799C273.623 139.178 273.649 133.508 273.1 127.891C272.509 121.827 268.343 119.729 262.823 119.593C259.662 119.516 256.487 119.578 252.445 119.578V98.1778C278.24 93.8948 296.06 102.478 297.715 127.159C298.409 137.522 298.306 147.935 298.97 158.299C299.262 163.937 300.104 169.533 301.489 175.005Z" fill="white"/>
</g>
<defs>
<clipPath id="clip0_2129_143">
<rect width="400" height="400" fill="white"/>
</clipPath>
</defs>
</svg>
