<svg width="400" height="400" viewBox="0 0 400 400" fill="none" xmlns="http://www.w3.org/2000/svg">
<path d="M200 79.6875C146.667 79.6875 113.333 106.354 100 159.688C120 133.021 143.333 123.021 170 129.688C185.215 133.491 196.09 144.529 208.127 156.748C227.736 176.651 250.43 199.688 300 199.688C353.333 199.688 386.667 173.021 400 119.688C380 146.354 356.667 156.354 330 149.687C314.785 145.884 303.91 134.846 291.873 122.627C272.264 102.724 249.57 79.6875 200 79.6875ZM100 199.688C46.6667 199.688 13.3333 226.354 0 279.688C20 253.021 43.3333 243.021 70 249.688C85.2148 253.491 96.0896 264.529 108.127 276.748C127.736 296.651 150.43 319.688 200 319.688C253.333 319.688 286.667 293.021 300 239.688C280 266.354 256.667 276.354 230 269.687C214.785 265.884 203.91 254.846 191.873 242.628C172.264 222.724 149.57 199.688 100 199.688Z" fill="url(#paint0_linear_2129_128)"/>
<defs>
<linearGradient id="paint0_linear_2129_128" x1="-1111.11" y1="7759.69" x2="33435.4" y2="27678.4" gradientUnits="userSpaceOnUse">
<stop stop-color="#2298BD"/>
<stop offset="1" stop-color="#0ED7B5"/>
</linearGradient>
</defs>
</svg>
