<svg width="400" height="400" viewBox="0 0 400 400" fill="none" xmlns="http://www.w3.org/2000/svg">
<g clip-path="url(#clip0_2129_177)">
<path d="M0 200V400H200H400V200V0H200H0V200Z" fill="#007ACC"/>
<path d="M88.4559 201.327L88.3289 217.708L114.361 217.708H140.392V291.676V365.645H158.805H177.218V291.676L177.218 217.708H203.25H229.281V201.645C229.281 192.756 229.091 185.327 228.837 185.137C228.646 184.883 196.964 184.756 158.551 184.819L88.6463 185.01L88.4559 201.327Z" fill="white"/>
<path d="M322.761 184.545C332.919 187.085 340.666 191.593 347.777 198.958C351.459 202.894 356.919 210.069 357.364 211.783C357.491 212.291 340.094 223.973 329.554 230.513C329.173 230.767 327.65 229.116 325.935 226.577C320.793 219.085 315.396 215.847 307.142 215.275C295.015 214.45 287.205 220.799 287.269 231.402C287.269 234.513 287.713 236.354 288.983 238.894C291.65 244.418 296.602 247.72 312.158 254.45C340.792 266.767 353.046 274.894 360.666 286.45C369.173 299.339 371.078 319.91 365.3 335.212C358.951 351.847 343.205 363.148 321.046 366.894C314.189 368.1 297.935 367.91 290.57 366.577C274.507 363.72 259.269 355.783 249.872 345.37C246.189 341.307 239.015 330.704 239.459 329.942C239.65 329.688 241.3 328.672 243.142 327.593C244.92 326.577 251.65 322.704 257.999 319.021L269.491 312.354L271.904 315.91C275.269 321.053 282.634 328.1 287.078 330.45C299.84 337.18 317.364 336.227 325.999 328.481C329.681 325.116 331.205 321.624 331.205 316.481C331.205 311.847 330.634 309.815 328.221 306.323C325.11 301.878 318.761 298.132 300.729 290.323C280.094 281.434 271.205 275.91 263.078 267.148C258.38 262.069 253.935 253.942 252.094 247.148C250.57 241.497 250.189 227.339 251.396 221.624C255.65 201.688 270.697 187.783 292.412 183.656C299.459 182.323 315.84 182.831 322.761 184.545Z" fill="white"/>
</g>
<defs>
<clipPath id="clip0_2129_177">
<rect width="400" height="400" fill="white"/>
</clipPath>
</defs>
</svg>
