<svg width="400" height="400" viewBox="0 0 400 400" fill="none" xmlns="http://www.w3.org/2000/svg">
<g clip-path="url(#clip0_2142_138)">
<path fill-rule="evenodd" clip-rule="evenodd" d="M199.404 0C89.1388 0 0 91.6667 0 205.071C0 295.721 57.1143 372.454 136.347 399.612C146.253 401.654 149.882 395.2 149.882 389.771C149.882 385.017 149.555 368.721 149.555 351.742C94.0857 363.967 82.5347 327.296 82.5347 327.296C73.6204 303.529 60.4122 297.421 60.4122 297.421C42.2571 284.858 61.7347 284.858 61.7347 284.858C81.8735 286.217 92.4408 305.908 92.4408 305.908C110.265 337.142 138.988 328.317 150.543 322.883C152.192 309.642 157.478 300.475 163.09 295.383C118.849 290.629 72.302 272.975 72.302 194.204C72.302 171.796 80.2204 153.462 92.7673 139.204C90.7878 134.112 83.8531 113.058 94.751 84.8792C94.751 84.8792 111.588 79.4458 149.551 105.929C165.804 101.44 182.566 99.1567 199.404 99.1375C216.241 99.1375 233.404 101.517 249.253 105.929C287.22 79.4458 304.057 84.8792 304.057 84.8792C314.955 113.058 308.016 134.112 306.037 139.204C318.914 153.462 326.506 171.796 326.506 194.204C326.506 272.975 279.959 290.287 235.388 295.383C242.653 301.833 248.922 314.054 248.922 333.408C248.922 360.908 248.596 382.979 248.596 389.767C248.596 395.2 252.229 401.654 262.131 399.617C341.363 372.45 398.478 295.721 398.478 205.071C398.804 91.6667 309.339 0 199.404 0Z" fill="#24292F"/>
</g>
<defs>
<clipPath id="clip0_2142_138">
<rect width="400" height="400" fill="white"/>
</clipPath>
</defs>
</svg>
