<svg width="400" height="400" viewBox="0 0 400 400" fill="none" xmlns="http://www.w3.org/2000/svg">
<g clip-path="url(#clip0_2142_127)">
<path d="M200.065 0C116.567 0 92.1471 0.086172 87.4003 0.479999C70.2651 1.90473 59.6026 4.60347 47.9861 10.3884C39.0341 14.8351 31.9738 19.9893 25.0058 27.2146C12.316 40.3911 4.62512 56.6016 1.84097 75.871C0.487445 85.2256 0.0936147 87.1334 0.0136399 134.916C-0.0170499 150.844 0.0136399 171.805 0.0136399 199.921C0.0136399 283.375 0.10586 307.777 0.505885 312.516C1.89025 329.194 4.50508 339.687 10.0425 351.165C20.6252 373.136 40.8366 389.63 64.6477 395.784C72.8923 397.908 81.9983 399.077 93.6883 399.631C98.6413 399.846 149.124 400 199.638 400C250.151 400 300.665 399.938 305.495 399.692C319.031 399.055 326.891 398 335.581 395.753C359.546 389.568 379.389 373.321 390.186 351.042C395.616 339.841 398.37 328.948 399.616 313.14C399.886 309.694 400 254.745 400 199.869C400 144.985 399.877 90.1368 399.606 86.6903C398.345 70.6274 395.592 59.8266 389.987 48.4102C385.387 39.0648 380.281 32.0856 372.867 24.9499C359.635 12.3087 343.454 4.61571 324.171 1.83398C314.828 0.483024 312.967 0.0829984 265.161 0H200.065Z" fill="url(#paint0_radial_2142_127)"/>
<path d="M200.065 0C116.567 0 92.1471 0.086172 87.4003 0.479999C70.2651 1.90473 59.6026 4.60347 47.9861 10.3884C39.0341 14.8351 31.9738 19.9893 25.0058 27.2146C12.316 40.3911 4.62512 56.6016 1.84097 75.871C0.487445 85.2256 0.0936147 87.1334 0.0136399 134.916C-0.0170499 150.844 0.0136399 171.805 0.0136399 199.921C0.0136399 283.375 0.10586 307.777 0.505885 312.516C1.89025 329.194 4.50508 339.687 10.0425 351.165C20.6252 373.136 40.8366 389.63 64.6477 395.784C72.8923 397.908 81.9983 399.077 93.6883 399.631C98.6413 399.846 149.124 400 199.638 400C250.151 400 300.665 399.938 305.495 399.692C319.031 399.055 326.891 398 335.581 395.753C359.546 389.568 379.389 373.321 390.186 351.042C395.616 339.841 398.37 328.948 399.616 313.14C399.886 309.694 400 254.745 400 199.869C400 144.985 399.877 90.1368 399.606 86.6903C398.345 70.6274 395.592 59.8266 389.987 48.4102C385.387 39.0648 380.281 32.0856 372.867 24.9499C359.635 12.3087 343.454 4.61571 324.171 1.83398C314.828 0.483024 312.967 0.0829984 265.161 0H200.065Z" fill="url(#paint1_radial_2142_127)"/>
<path d="M200.065 0C116.567 0 92.1471 0.086172 87.4003 0.479999C70.2651 1.90473 59.6026 4.60347 47.9861 10.3884C39.0341 14.8351 31.9738 19.9893 25.0058 27.2146C12.316 40.3911 4.62512 56.6016 1.84097 75.871C0.487445 85.2256 0.0936147 87.1334 0.0136399 134.916C-0.0170499 150.844 0.0136399 171.805 0.0136399 199.921C0.0136399 283.375 0.10586 307.777 0.505885 312.516C1.89025 329.194 4.50508 339.687 10.0425 351.165C20.6252 373.136 40.8366 389.63 64.6477 395.784C72.8923 397.908 81.9983 399.077 93.6883 399.631C98.6413 399.846 149.124 400 199.638 400C250.151 400 300.665 399.938 305.495 399.692C319.031 399.055 326.891 398 335.581 395.753C359.546 389.568 379.389 373.321 390.186 351.042C395.616 339.841 398.37 328.948 399.616 313.14C399.886 309.694 400 254.745 400 199.869C400 144.985 399.877 90.1368 399.606 86.6903C398.345 70.6274 395.592 59.8266 389.987 48.4102C385.387 39.0648 380.281 32.0856 372.867 24.9499C359.635 12.3087 343.454 4.61571 324.171 1.83398C314.828 0.483024 312.967 0.0829984 265.161 0H200.065Z" fill="url(#paint2_radial_2142_127)"/>
<path d="M200.065 0C116.567 0 92.1471 0.086172 87.4003 0.479999C70.2651 1.90473 59.6026 4.60347 47.9861 10.3884C39.0341 14.8351 31.9738 19.9893 25.0058 27.2146C12.316 40.3911 4.62512 56.6016 1.84097 75.871C0.487445 85.2256 0.0936147 87.1334 0.0136399 134.916C-0.0170499 150.844 0.0136399 171.805 0.0136399 199.921C0.0136399 283.375 0.10586 307.777 0.505885 312.516C1.89025 329.194 4.50508 339.687 10.0425 351.165C20.6252 373.136 40.8366 389.63 64.6477 395.784C72.8923 397.908 81.9983 399.077 93.6883 399.631C98.6413 399.846 149.124 400 199.638 400C250.151 400 300.665 399.938 305.495 399.692C319.031 399.055 326.891 398 335.581 395.753C359.546 389.568 379.389 373.321 390.186 351.042C395.616 339.841 398.37 328.948 399.616 313.14C399.886 309.694 400 254.745 400 199.869C400 144.985 399.877 90.1368 399.606 86.6903C398.345 70.6274 395.592 59.8266 389.987 48.4102C385.387 39.0648 380.281 32.0856 372.867 24.9499C359.635 12.3087 343.454 4.61571 324.171 1.83398C314.828 0.483024 312.967 0.0829984 265.161 0H200.065Z" fill="url(#paint3_radial_2142_127)"/>
<path d="M200.081 51.3613C159.69 51.3613 154.621 51.5378 138.758 52.2592C122.925 52.9837 112.118 55.4884 102.661 59.1636C92.8797 62.9593 84.5821 68.0369 76.3157 76.3003C68.0431 84.5609 62.9616 92.8521 59.1506 102.623C55.4634 112.076 52.9537 122.878 52.2411 138.693C51.5317 154.545 51.3457 159.613 51.3457 199.974C51.3457 240.335 51.5255 245.384 52.2442 261.236C52.9724 277.057 55.479 287.857 59.1536 297.306C62.9554 307.08 68.0367 315.372 76.3063 323.632C84.5699 331.898 92.8673 336.989 102.643 340.784C112.105 344.459 122.916 346.964 138.745 347.689C154.609 348.41 159.675 348.586 200.062 348.586C240.456 348.586 245.51 348.41 261.373 347.689C277.206 346.964 288.026 344.459 297.488 340.784C307.267 336.989 315.552 331.898 323.816 323.632C332.088 315.372 337.17 307.08 340.981 297.309C344.637 287.857 347.146 277.054 347.89 261.239C348.603 245.387 348.789 240.335 348.789 199.974C348.789 159.613 348.603 154.548 347.89 138.696C347.146 122.875 344.637 112.076 340.981 102.627C337.17 92.8521 332.088 84.5607 323.816 76.3003C315.543 68.0337 307.27 62.9562 297.479 59.1635C287.998 55.4884 277.185 52.9837 261.352 52.2592C245.488 51.5378 240.438 51.3613 200.035 51.3613H200.081ZM186.739 78.1426C190.699 78.1364 195.117 78.1426 200.081 78.1426C239.79 78.1426 244.497 78.285 260.177 78.9971C274.678 79.6597 282.548 82.0807 287.79 84.1149C294.731 86.8085 299.679 90.0285 304.881 95.2299C310.086 100.431 313.309 105.385 316.011 112.32C318.046 117.553 320.472 125.417 321.132 139.907C321.845 155.573 322 160.279 322 199.94C322 239.601 321.845 244.307 321.132 259.973C320.469 274.463 318.046 282.327 316.011 287.559C313.315 294.495 310.086 299.433 304.881 304.631C299.676 309.833 294.734 313.053 287.79 315.746C282.554 317.79 274.678 320.204 260.177 320.867C244.5 321.579 239.79 321.734 200.081 321.734C160.369 321.734 155.662 321.579 139.985 320.867C125.484 320.198 117.614 317.777 112.369 315.743C105.428 313.05 100.471 309.829 95.2655 304.628C90.0602 299.427 86.8379 294.485 84.136 287.547C82.1003 282.315 79.6743 274.45 79.0144 259.961C78.3018 244.294 78.1592 239.588 78.1592 199.903C78.1592 160.217 78.3018 155.536 79.0144 139.869C79.6775 125.38 82.1003 117.516 84.136 112.277C86.8315 105.342 90.0602 100.388 95.2655 95.1866C100.471 89.9851 105.428 86.7652 112.369 84.0654C117.611 82.0219 125.484 79.6071 139.985 78.9413C153.704 78.3221 159.021 78.1364 186.739 78.1053L186.739 78.1426ZM279.468 102.818C269.615 102.818 261.621 110.797 261.621 120.646C261.621 130.491 269.615 138.479 279.468 138.479C289.321 138.479 297.315 130.491 297.315 120.646C297.315 110.8 289.321 102.812 279.468 102.812L279.468 102.818ZM200.081 123.655C157.903 123.655 123.706 157.827 123.706 199.974C123.706 242.121 157.903 276.277 200.081 276.277C242.259 276.277 276.444 242.121 276.444 199.974C276.444 157.827 242.256 123.655 200.078 123.655H200.081ZM200.081 150.436C227.458 150.436 249.655 172.614 249.655 199.974C249.655 227.331 227.458 249.511 200.081 249.511C172.701 249.511 150.507 227.331 150.507 199.974C150.507 172.614 172.701 150.436 200.081 150.436Z" fill="white"/>
</g>
<defs>
<radialGradient id="paint0_radial_2142_127" cx="0" cy="0" r="1" gradientTransform="matrix(-245.982 69.3727 -49.9804 -177.218 387.084 187.485)" gradientUnits="userSpaceOnUse">
<stop stop-color="#FF005F"/>
<stop offset="1" stop-color="#FC01D8"/>
</radialGradient>
<radialGradient id="paint1_radial_2142_127" cx="0" cy="0" r="1" gradientUnits="userSpaceOnUse" gradientTransform="translate(106.247 430.808) rotate(-90) scale(319.288 338.757)">
<stop stop-color="#FFCC00"/>
<stop offset="0.1242" stop-color="#FFCC00"/>
<stop offset="0.5672" stop-color="#FE4A05"/>
<stop offset="0.6942" stop-color="#FF0F3F"/>
<stop offset="1" stop-color="#FE0657" stop-opacity="0"/>
</radialGradient>
<radialGradient id="paint2_radial_2142_127" cx="0" cy="0" r="1" gradientTransform="matrix(66.2727 -114.19 148.662 86.28 210.108 394.359)" gradientUnits="userSpaceOnUse">
<stop stop-color="#FFCC00"/>
<stop offset="1" stop-color="#FFCC00" stop-opacity="0"/>
</radialGradient>
<radialGradient id="paint3_radial_2142_127" cx="0" cy="0" r="1" gradientTransform="matrix(-243.282 68.504 -23.3333 -82.8875 54.2714 16.2879)" gradientUnits="userSpaceOnUse">
<stop stop-color="#780CFF"/>
<stop offset="1" stop-color="#820BFF" stop-opacity="0"/>
</radialGradient>
<clipPath id="clip0_2142_127">
<rect width="400" height="400" fill="white"/>
</clipPath>
</defs>
</svg>
