<svg width="400" height="400" viewBox="0 0 400 400" fill="none" xmlns="http://www.w3.org/2000/svg">
<g clip-path="url(#clip0_2142_134)">
<path d="M340.819 340.827H281.552V248.008C281.552 225.875 281.157 197.382 250.726 197.382C219.858 197.382 215.135 221.498 215.135 246.397V340.821H155.867V149.948H212.764V176.033H213.561C219.255 166.297 227.483 158.288 237.368 152.858C247.254 147.429 258.427 144.782 269.698 145.201C329.768 145.201 340.844 184.714 340.844 236.117L340.819 340.827ZM88.9938 123.857C82.1913 123.859 75.5412 121.843 69.8845 118.064C64.2278 114.286 59.8188 108.915 57.2145 102.631C54.6102 96.3461 53.9277 89.4306 55.2536 82.7584C56.5795 76.0862 59.8542 69.9571 64.6633 65.146C69.4725 60.335 75.6003 57.0581 82.2718 55.7297C88.9433 54.4014 95.8587 55.0813 102.144 57.6834C108.429 60.2856 113.801 64.6931 117.581 70.3486C121.362 76.0041 123.38 82.6537 123.381 89.4563C123.382 93.9731 122.493 98.4458 120.765 102.619C119.038 106.792 116.505 110.584 113.312 113.779C110.119 116.973 106.328 119.508 102.155 121.237C97.9826 122.966 93.5104 123.857 88.9938 123.857ZM118.627 340.827H59.2983V149.948H118.627V340.827ZM370.366 0.0272526H29.5165C21.7802 -0.0600548 14.3253 2.92772 8.79067 8.33404C3.25604 13.7404 0.0944177 21.1229 0 28.8594V371.135C0.0911862 378.875 3.25095 386.263 8.78539 391.674C14.3198 397.086 21.7763 400.08 29.5165 399.998H370.366C378.122 400.095 385.599 397.11 391.155 391.698C396.712 386.286 399.893 378.89 400 371.135V28.8347C399.889 21.0829 396.706 13.6919 391.15 8.28574C385.593 2.87955 378.118 -0.0996905 370.366 0.00254703" fill="#0A66C2"/>
</g>
<defs>
<clipPath id="clip0_2142_134">
<rect width="400" height="400" fill="white"/>
</clipPath>
</defs>
</svg>
