<svg width="400" height="400" viewBox="0 0 400 400" fill="none" xmlns="http://www.w3.org/2000/svg">
<path fill-rule="evenodd" clip-rule="evenodd" d="M341.328 58.5451C175.586 -101.667 -84.4231 96.5279 28.2244 297.419L0 400L105.459 372.474C307.221 478.666 500.376 221.316 341.328 58.5451Z" fill="#F1F1F1"/>
<path fill-rule="evenodd" clip-rule="evenodd" d="M200.615 366.327C167.871 366.443 136.042 356.655 108.589 339.303L44.7834 355.955L61.8172 294.048C42.679 265.815 31.8851 232.7 32.0317 198.426C31.7299 50.1134 214.984 -25.5045 319.865 79.8798C425.587 184.367 349.646 366.653 200.615 366.327Z" fill="#25D366"/>
<path fill-rule="evenodd" clip-rule="evenodd" d="M293.081 240.681C288.014 238.157 263.097 225.952 258.453 224.27C253.809 222.587 250.428 221.745 247.051 226.798C243.67 231.846 233.967 243.205 231.009 246.567C228.055 249.936 225.097 250.357 220.03 247.833C209.081 249.288 152.912 202.003 151.084 187.862C148.13 182.818 150.769 180.084 153.309 177.568C157.721 172.747 163.305 166.686 165.974 160.32C167.665 156.95 166.82 154.005 165.552 151.481C164.284 148.956 154.435 124.007 149.928 114.034C146.133 105.633 142.136 105.466 138.526 105.316C129.975 105.449 123.355 103.238 115.3 111.51C85.0961 140.448 98.9474 181.114 118.254 205.759C120.785 209.125 153.313 261.686 204.825 281.905C247.633 298.711 256.344 295.367 265.637 294.526C274.931 293.685 295.621 282.326 299.843 270.546C304.065 258.767 304.065 248.67 302.801 246.562C301.529 244.467 298.148 243.205 293.081 240.681Z" fill="#F1F1F1"/>
</svg>
